<?xml version="1.0" standalone="no"?><svg xmlns="http://www.w3.org/2000/svg" viewBox="0 0 1440 320"><path fill="#EDF2F7" fill-opacity="1" d="M0,288L24,272C48,256,96,224,144,192C192,160,240,128,288,106.7C336,85,384,75,432,69.3C480,64,528,64,576,74.7C624,85,672,107,720,128C768,149,816,171,864,154.7C912,139,960,85,1008,85.3C1056,85,1104,139,1152,149.3C1200,160,1248,128,1296,144C1344,160,1392,224,1416,256L1440,288L1440,0L1416,0C1392,0,1344,0,1296,0C1248,0,1200,0,1152,0C1104,0,1056,0,1008,0C960,0,912,0,864,0C816,0,768,0,720,0C672,0,624,0,576,0C528,0,480,0,432,0C384,0,336,0,288,0C240,0,192,0,144,0C96,0,48,0,24,0L0,0Z"></path></svg>